<svg xmlns="http://www.w3.org/2000/svg" viewBox="0 0 64 64" width="32" height="32">
  <defs>
    <path id="c" d="M317.8 -12.5Q231.5 -12.5 176.9 17.0Q122.3 46.5 94.6 95.0Q66.8 143.5 60.6 201.4Q54.4 259.2 64.4 316.3Q77.8 390 113.8 448.9Q149.7 507.8 201.2 549.6Q252.6 591.4 312.8 613.7Q373 636 434.4 636Q475.4 636 516.5 627.0Q557.6 617.9 580.6 602.6Q587.6 598.1 588.6 594.1Q589.6 590.1 588.6 579.1L577 461.0Q576.5 457.4 571.5 457.4Q566.5 457.4 566 461.0Q555.6 538.8 510.0 575.6Q464.4 612.3 395.5 612.3Q333.1 612.3 281.6 579.7Q230.2 547.1 195.8 487.5Q161.5 427.9 148.4 346Q136.7 275.8 144.1 213.7Q151.5 151.6 174.8 104.3Q198.1 57.1 236.0 30.1Q273.9 3.1 323.8 3.1Q378.2 3.1 431.8 40.1Q485.5 77.1 533.6 154.0Q536.1 157.4 540.8 155.2Q545.6 153.0 544.1 150.4L515.4 40.4Q511.9 27.8 509.1 23.6Q506.4 19.4 497.4 16.8Q449.1 0.9 402.7 -5.8Q356.3 -12.5 317.8 -12.5Z"/>
  </defs>
  <rect width="64" height="64" rx="8" fill="#080A12"/>
  <g fill="#C9A961">
    <use href="#c" transform="matrix(0.042 0 0 -0.042 15.4 45.1)"/>
    <use href="#c" transform="matrix(-0.042 0 0 -0.042 48.6 45.1)"/>
  </g>
</svg>
